# xmcd CD database file
#
# Track frame offsets:
#	150
#	22500
#	38850
#	67275
#	91425
#	116025
#	134775
#	149175
#	166725
#	187050
#	210825
#	225375
#	237975
#	258300
#
# Disc length: 3670 seconds
#
# Revision: 0
# Processed by: cddbd v1.5.1PL0 Copyright (c) Steve Scherf et al.
# Submitted via: CDex 1.51
#
DISCID=c90e540e
DTITLE=Jody Williams - You Left Me In The Dark
DYEAR=2004
DGENRE=Blues
TTITLE0=You Left Me In The Dark
TTITLE1=I Can't Get You Off My Mind
TTITLE2=Don't Get Caught Sleeping In My Bed
TTITLE3=She's Got A Spell On Me
TTITLE4=I'll Be There
TTITLE5=Good Things
TTITLE6=What Kind Of Gal Is That
TTITLE7=Hideout
TTITLE8=Young Men Don't Know
TTITLE9=Someone Else
TTITLE10=I Make Money
TTITLE11=Looking For My Baby
TTITLE12=Nothing Can Change This Love
TTITLE13=I've Been Watching You
EXTD=YEAR: 2004
EXTT0=
EXTT1=
EXTT2=
EXTT3=
EXTT4=
EXTT5=
EXTT6=
EXTT7=
EXTT8=
EXTT9=
EXTT10=
EXTT11=
EXTT12=
EXTT13=
PLAYORDER=
